<svg width="48" height="48" viewBox="0 0 48 48" fill="none" xmlns="http://www.w3.org/2000/svg">
<path d="M23.707 46.0128L41.2354 35.8926L34.5142 32.0133L27.6446 35.9779C27.4022 36.1261 27.061 35.9331 27.07 35.6457V26.2214C27.07 25.9386 27.2271 25.6871 27.4561 25.5569L35.6186 20.8425C35.8611 20.6943 36.2023 20.8829 36.1933 21.1747V29.1039L42.9147 32.9832V12.7427L23.707 23.8328V46.0128Z" fill="#A6A6A6"/>
<path d="M25.3868 2.625V10.388L32.2564 14.3526C32.5033 14.4918 32.5123 14.878 32.2564 15.0171L24.0938 19.7315C23.8468 19.8752 23.555 19.8662 23.326 19.7315L15.1634 15.0171C14.912 14.8824 14.9075 14.4873 15.1634 14.3526L22.0285 10.388V2.625L4.5 12.7452L23.7077 23.8353L42.9153 12.7452L25.3868 2.625Z" fill="white"/>
<path d="M19.7739 35.9779L12.9045 32.0133L6.18312 35.8926L23.7116 46.0128V23.8328L4.50391 12.7427V32.9832L11.2252 29.1039V21.1747C11.2207 20.8919 11.553 20.6898 11.7999 20.8425L19.9625 25.5569C20.2095 25.7006 20.3487 25.9565 20.3487 26.2214V35.6457C20.3532 35.9286 20.0209 36.1306 19.7739 35.9779Z" fill="#CCCCCC"/>
</svg>
